# xmcd
#
# Track frame offsets:
# 150
# 11378
# 21181
# 33089
# 46961
# 61490
# 74106
# 87550
# 100156
# 109808
# 123572
# 141362
# 157132
# 169545
# 180484
# 192094
# 204721
# 214140
# 224550
# 241995
# 252770
# 265363
# 280715
# 294383
# 308180
# 314600
#
# Disc length: 4413 seconds
#
#
# Revision: 0
# Processed by: cddbd v1.5PL3 Copyright (c) Steve Scherf et al.
# Submitted via: FreeRIP 2.70 
#
DISCID=8d113b1a
DTITLE=Various Artist - White Boy Blues
DYEAR=2000
DGENRE=Blues
TTITLE0=Snake Drive - Eric Clapton
TTITLE1=I'm Your Witchdoctor - John Mayall
TTITLE2=Steelin' -Jeff Beck
TTITLE3=Draggin' My Tail - Eric Clapton
TTITLE4=So Much To Say - Rod Stewart
TTITLE5=Someday Baby - Cyril Davis
TTITLE6=Piano Shuffle - Nicky Hopkins
TTITLE7=Somebody's Gonna Get Their Heads Kicked In Tonight - Fleetwood Mac
TTITLE8=Tribute to Elmore - Eric Clapton
TTITLE9=I Tried - Savoy Brown
TTITLE10=Telephone Blues - John Mayall
TTITLE11=Water On My Fire - Albert Lee
TTITLE12=Flapjacks - Stone's Masonry
TTITLE13=Miles Road - Eric Clapton and Jimmy Page
TTITLE14=Who's Knockin' - Jeremy Spencer
TTITLE15=Freight Loader - Eric Clapton and Jimmy Page
TTITLE16=L.A. Breakdown - Jimmy Page
TTITLE17=West Coast Idea - Eric Clapton and Jimmy Page
TTITLE18=Cold Blooded Woman - Savoy Brown
TTITLE19=Chuckles - Jeff Beck
TTITLE20=On Top Of The World - John Mayall
TTITLE21=Down In My Boots - Jimmy Page
TTITLE22=Come Home Baby - Rod Stewart
TTITLE23=Look Down At My Woman - Jeremy Spencer
TTITLE24=Choker - Eric Clapton and Jimmy Page
TTITLE25=Can't Quit You Baby - Savoy Brown
EXTD=Collection of Blies from the 60's by white artists.
EXTT0=Eric Clapton
EXTT1=John Mayall and The Bluesbreakers
EXTT2=Jeff Beck and The All Stars
EXTT3=Eric Clapton and Jimmy Page
EXTT4=Rod Stewart
EXTT5=Cyril Davis and The All Stars
EXTT6=Nicky Hopkins and The All Stars
EXTT7=Earl Vince and The Valiants (Fleetwood Mac)
EXTT8=Eric Clapton
EXTT9=Savoy Brown Blues Band
EXTT10=John Mayall and The Bluesbreakers
EXTT11=Albert Lee
EXTT12=Stone's Masonry
EXTT13=Eric Clapton and Jimmy Page
EXTT14=Jeremy Spencer
EXTT15=Eric Clapton and Jimmy Page
EXTT16=Jimmy Page and The All Stars
EXTT17=Eric Clapton and Jimmy Page
EXTT18=Savoy Brown Blues Band
EXTT19=Jeff Beck and The All Stars
EXTT20=John Mayall and The Bluesbreakers
EXTT21=Jimmy Page and The All Stars
EXTT22=Rod Stewart and P.P. Arnold
EXTT23=Jeremy Spencer
EXTT24=Eric Clapton and Jimmy Page
EXTT25=Savoy Brown Blues Band
PLAYORDER=
